<?xml version="1.0" encoding="UTF-8" standalone="no"?>
<!-- Generator: Adobe Illustrator 16.0.4, SVG Export Plug-In . SVG Version: 6.00 Build 0)  -->

<svg
   xmlns:dc="http://purl.org/dc/elements/1.1/"
   xmlns:cc="http://creativecommons.org/ns#"
   xmlns:rdf="http://www.w3.org/1999/02/22-rdf-syntax-ns#"
   xmlns:svg="http://www.w3.org/2000/svg"
   xmlns="http://www.w3.org/2000/svg"
   xmlns:sodipodi="http://sodipodi.sourceforge.net/DTD/sodipodi-0.dtd"
   xmlns:inkscape="http://www.inkscape.org/namespaces/inkscape"
   version="1.1"
   id="Capa_1"
   x="0px"
   y="0px"
   width="40"
   height="40"
   viewBox="0 0 40 40"
   enable-background="new 0 0 16 16"
   xml:space="preserve"
   inkscape:version="0.48.2 r9819"
   sodipodi:docname="facebook.svg"><metadata
   id="metadata9"><rdf:RDF><cc:Work
       rdf:about=""><dc:format>image/svg+xml</dc:format><dc:type
         rdf:resource="http://purl.org/dc/dcmitype/StillImage" /><dc:title></dc:title></cc:Work></rdf:RDF></metadata><defs
   id="defs7" /><sodipodi:namedview
   pagecolor="#ffffff"
   bordercolor="#666666"
   borderopacity="1"
   objecttolerance="10"
   gridtolerance="10"
   guidetolerance="10"
   inkscape:pageopacity="0"
   inkscape:pageshadow="2"
   inkscape:window-width="945"
   inkscape:window-height="695"
   id="namedview5"
   showgrid="false"
   inkscape:zoom="7.37"
   inkscape:cx="21.559322"
   inkscape:cy="29.694915"
   inkscape:window-x="253"
   inkscape:window-y="56"
   inkscape:window-maximized="0"
   inkscape:current-layer="Capa_1"
   fit-margin-top="0"
   fit-margin-left="0"
   fit-margin-right="0"
   fit-margin-bottom="0" />
<g
   id="g3771"><path
     transform="matrix(0.71506848,0,0,1.1666667,-5.6140602,27.639078)"
     d="m 60.651287,-6.6757126 a 24.76255,15.061059 0 1 1 -49.525101,0 24.76255,15.061059 0 1 1 49.525101,0 z"
     sodipodi:ry="15.061059"
     sodipodi:rx="24.76255"
     sodipodi:cy="-6.6757126"
     sodipodi:cx="35.888737"
     id="path3001"
     style="fill:#d6d6d6;fill-opacity:1;fill-rule:nonzero;stroke:none"
     sodipodi:type="arc" /><path
     inkscape:connector-curvature="0"
     inkscape:export-ydpi="360"
     inkscape:export-xdpi="360"
     inkscape:export-filename="/Users/rohanclarke/Desktop/Design/circle-icons/one-color/64facebook.png"
     style="fill:#142933;fill-opacity:1"
     id="path3"
     d="M 20,0 C 8.955,0 0,8.955 0,20 0,31.045 8.955,40 20,40 31.045,40 40,31.045 40,20 40,8.9525 31.045,0 20,0 z M 25.17,19.9975 21.8925,20 21.89,32 H 17.3925 V 20 h -3 v -4.135 l 3,-0.0025 -0.005,-2.435 C 17.3875,10.0525 18.3025,8 22.275,8 h 3.31 v 4.1375 h -2.07 c -1.5475,0 -1.6225,0.5775 -1.6225,1.655 l -0.005,2.07 h 3.72 l -0.4375,4.135 z" /></g>
</svg>