<?xml version="1.0" encoding="UTF-8" standalone="no"?>
<!-- Created with Inkscape (http://www.inkscape.org/) -->

<svg
   xmlns:dc="http://purl.org/dc/elements/1.1/"
   xmlns:cc="http://creativecommons.org/ns#"
   xmlns:rdf="http://www.w3.org/1999/02/22-rdf-syntax-ns#"
   xmlns:svg="http://www.w3.org/2000/svg"
   xmlns="http://www.w3.org/2000/svg"
   xmlns:sodipodi="http://sodipodi.sourceforge.net/DTD/sodipodi-0.dtd"
   xmlns:inkscape="http://www.inkscape.org/namespaces/inkscape"
   width="40"
   height="40"
   id="svg2"
   version="1.1"
   inkscape:version="0.48.2 r9819"
   sodipodi:docname="twitter.svg">
  <defs
     id="defs4">
    <inkscape:perspective
       sodipodi:type="inkscape:persp3d"
       inkscape:vp_x="0 : 150.00087 : 1"
       inkscape:vp_y="0 : 1000 : 0"
       inkscape:vp_z="800.00024 : 150.00087 : 1"
       inkscape:persp3d-origin="400.00012 : 100.00058 : 1"
       id="perspective5197" />
    <clipPath
       id="clipPath5992"
       clipPathUnits="userSpaceOnUse">
      <path
         id="path5994"
         d="m 0,1019 595.28,0 0,-1019 L 0,0 0,1019 z"
         inkscape:connector-curvature="0" />
    </clipPath>
    <clipPath
       id="clipPath5286"
       clipPathUnits="userSpaceOnUse">
      <path
         id="path5288"
         d="m 0,1019 595.28,0 0,-1019 L 0,0 0,1019 z"
         inkscape:connector-curvature="0" />
    </clipPath>
    <clipPath
       id="clipPath3199"
       clipPathUnits="userSpaceOnUse">
      <path
         id="path3201"
         d="m 0,595.28 841.89,0 L 841.89,0 0,0 0,595.28 z"
         inkscape:connector-curvature="0" />
    </clipPath>
    <linearGradient
       id="linearGradient3187"
       spreadMethod="pad"
       gradientTransform="matrix(-4.58e-5,1038.6401,1038.6401,4.58e-5,420.94482,-443.36035)"
       gradientUnits="userSpaceOnUse"
       y2="0"
       x2="1"
       y1="0"
       x1="0">
      <stop
         id="stop3189"
         offset="0"
         style="stop-opacity:1;stop-color:#ffc10e" />
      <stop
         id="stop3191"
         offset="1"
         style="stop-opacity:1;stop-color:#ef4e23" />
    </linearGradient>
  </defs>
  <sodipodi:namedview
     id="base"
     pagecolor="#ffffff"
     bordercolor="#666666"
     borderopacity="1.0"
     inkscape:pageopacity="0.0"
     inkscape:pageshadow="2"
     inkscape:zoom="1"
     inkscape:cx="193.13512"
     inkscape:cy="130.49563"
     inkscape:document-units="px"
     inkscape:current-layer="layer1"
     showgrid="false"
     inkscape:window-width="1161"
     inkscape:window-height="824"
     inkscape:window-x="135"
     inkscape:window-y="16"
     inkscape:window-maximized="0"
     inkscape:snap-nodes="true"
     inkscape:snap-global="false"
     inkscape:snap-bbox="true"
     inkscape:object-nodes="true"
     fit-margin-top="0"
     fit-margin-left="0"
     fit-margin-right="0"
     fit-margin-bottom="0" />
  <metadata
     id="metadata7">
    <rdf:RDF>
      <cc:Work
         rdf:about="">
        <dc:format>image/svg+xml</dc:format>
        <dc:type
           rdf:resource="http://purl.org/dc/dcmitype/StillImage" />
        <dc:title />
      </cc:Work>
    </rdf:RDF>
  </metadata>
  <g
     inkscape:label="Layer 1"
     inkscape:groupmode="layer"
     id="layer1"
     transform="translate(-103.43226,-558.64625)">
    <g
       id="g7384"
       transform="matrix(1.25,0,0,1.25,117.89193,-568.41156)">
      <g
         style="fill:#142933;fill-opacity:1"
         transform="matrix(0,-0.36199914,-0.36199914,0,4.432263,933.64625)"
         id="g6206">
        <path
           id="path6208"
           style="fill:#142933;fill-opacity:1;fill-rule:nonzero;stroke:none"
           d="m 0,0 c 0,-24.41 19.788,-44.199 44.199,-44.199 24.41,0 44.199,19.789 44.199,44.199 0,24.41 -19.789,44.199 -44.199,44.199 C 19.788,44.199 0,24.41 0,0"
           inkscape:connector-curvature="0" />
      </g>
      <g
         style="fill:#d6d6d6;fill-opacity:1"
         transform="matrix(0.36199914,0,0,-0.36199914,9.810263,913.68237)"
         id="g6210">
        <path
           id="path6212"
           style="fill:#d6d6d6;fill-opacity:1;fill-rule:nonzero;stroke:none"
           d="m 0,0 c -1.179,-0.57 -2.434,-0.939 -3.763,-1.109 1.355,0.872 2.394,2.245 2.886,3.89 -1.267,-0.803 -2.669,-1.377 -4.162,-1.712 -1.19,1.374 -2.896,2.232 -4.772,2.232 -3.613,0 -6.541,-3.15 -6.541,-7.044 0,-0.547 0.056,-1.088 0.164,-1.597 -5.425,0.28 -10.253,3.095 -13.481,7.348 -0.561,-1.038 -0.882,-2.245 -0.882,-3.54 0,-2.438 1.153,-4.607 2.912,-5.851 -1.075,0.043 -2.084,0.343 -2.964,0.875 l 0,-0.096 c 0,-3.406 2.254,-6.248 5.246,-6.906 -0.548,-0.159 -1.127,-0.232 -1.728,-0.232 -0.42,0 -0.819,0.029 -1.223,0.125 0.829,-2.808 3.247,-4.847 6.109,-4.889 -2.239,-1.899 -5.059,-3.014 -8.124,-3.014 -0.529,0 -1.052,0.031 -1.562,0.098 2.894,-2.007 6.326,-3.177 10.028,-3.177 12.031,0 18.614,10.735 18.614,20.04 0,0.298 -0.007,0.6 -0.022,0.901 C -1.988,-2.651 -0.877,-1.409 0,0"
           inkscape:connector-curvature="0" />
      </g>
    </g>
  </g>
</svg>
